# xmcd CD database file generated by Grip 3.2.0
# 
# Track frame offsets:
#       150
#       12542
#       22543
#       35261
#       57122
#       80701
#       90754
#       104111
#       117148
#       140963
# 
# Disc length: 2074 seconds
# 
# Revision: 1
# Processed by: cddbd v1.5.2PL0 Copyright (c) Steve Scherf et al.
# Submitted via: Grip 3.2.0
# 
DISCID=7808180a
DTITLE=Beasts Of Bourbon - Little Animals
DYEAR=2007
DGENRE=Blues
TTITLE0=I don't care about nothing anymore
TTITLE1=I'm gone
TTITLE2=I told you so
TTITLE3=Master and slave
TTITLE4=Little Animals
TTITLE5=The beast i became to be
TTITLE6=Sleepwalker
TTITLE7=Too much too late
TTITLE8=New day of the dead
TTITLE9=Thanks
EXTD=Tex Perkins at his grungiest.
EXTT0=
EXTT1=
EXTT2=
EXTT3=
EXTT4=
EXTT5=
EXTT6=
EXTT7=
EXTT8=
EXTT9=
PLAYORDER=
